<svg width="290" height="439" viewBox="0 0 290 439" fill="none" xmlns="http://www.w3.org/2000/svg">
<path d="M18.4498 340.76C15.8258 340.76 14.5138 339.416 14.5138 336.728C14.5138 334.168 15.8258 332.888 18.4498 332.888C20.9458 332.888 22.1938 334.168 22.1938 336.728C22.1938 339.416 20.9458 340.76 18.4498 340.76ZM29.3938 340.76C26.7698 340.76 25.4578 339.416 25.4578 336.728C25.4578 334.168 26.7698 332.888 29.3938 332.888C31.8898 332.888 33.1378 334.168 33.1378 336.728C33.1378 339.416 31.8898 340.76 29.3938 340.76ZM48.0178 389.048H51.2817V395H47.1538C40.3058 395 35.5378 392.312 32.8498 386.936C29.5218 390.392 25.4258 392.12 20.5618 392.12C15.0578 392.12 10.7058 390.04 7.50575 385.88C4.81775 382.36 3.47375 377.976 3.47375 372.728C3.47375 366.584 5.26575 361.656 8.84975 357.944C11.9858 354.68 15.8578 353.048 20.4658 353.048C24.6258 353.048 28.1138 354.264 30.9298 356.696V351.512L37.3618 348.152V378.104C37.3618 385.4 40.9138 389.048 48.0178 389.048ZM30.9298 363.992C28.1138 360.6 24.6898 358.904 20.6578 358.904C17.4578 358.904 14.8338 360.216 12.7858 362.84C10.8018 365.4 9.80975 368.728 9.80975 372.824C9.80975 376.984 10.8018 380.312 12.7858 382.808C14.8338 385.304 17.4898 386.552 20.7538 386.552C24.9138 386.552 28.3698 384.728 31.1218 381.08C30.9938 379.928 30.9298 379 30.9298 378.296V363.992ZM80.2333 389.048H83.5933V395H79.4653C73.7053 395 69.3853 393.048 66.5053 389.144C63.4973 393.048 59.1453 395 53.4492 395H49.3212V389.048H52.6813C59.7213 389.048 63.2413 385.4 63.2413 378.104V357.272L69.6733 353.912V378.104C69.6733 385.4 73.1933 389.048 80.2333 389.048ZM65.4493 405.08C67.9453 405.08 69.1933 406.36 69.1933 408.92C69.1933 411.608 67.9453 412.952 65.4493 412.952C62.8253 412.952 61.5133 411.608 61.5133 408.92C61.5133 406.36 62.8253 405.08 65.4493 405.08ZM81.665 395V389.048H87.521C94.625 389.048 98.177 385.4 98.177 378.104V364.28L104.609 360.92V378.104C104.609 385.4 108.129 389.048 115.169 389.048H118.721C125.761 389.048 129.281 385.4 129.281 378.104V360.824L135.713 357.368V378.104C135.713 385.4 139.265 389.048 146.369 389.048H149.825C156.929 389.048 160.481 385.4 160.481 378.104V357.272L166.913 353.912V378.296C166.913 383.608 165.345 387.768 162.209 390.776C159.393 393.528 155.585 394.936 150.785 395H145.505C139.553 395 135.233 392.888 132.545 388.664C129.793 392.888 125.505 395 119.681 395H114.401C108.449 395 104.097 392.888 101.345 388.664C98.657 392.888 94.337 395 88.385 395H81.665ZM200.395 395C194.955 395 190.763 393.24 187.819 389.72C185.387 386.712 184.171 382.904 184.171 378.296V336.44L190.603 333.08V378.104C190.603 385.4 194.123 389.048 201.163 389.048H204.523V395H200.395ZM218.635 341.24C216.011 341.24 214.699 339.896 214.699 337.208C214.699 334.648 216.011 333.368 218.635 333.368C221.131 333.368 222.379 334.648 222.379 337.208C222.379 339.896 221.131 341.24 218.635 341.24ZM233.515 389.048H236.875V395H232.747C226.987 395 222.667 393.048 219.787 389.144C216.779 393.048 212.427 395 206.73 395H202.602V389.048H205.963C213.003 389.048 216.523 385.4 216.523 378.104V357.272L222.955 353.912V378.104C222.955 385.4 226.475 389.048 233.515 389.048ZM248.866 369.272C248.866 363.832 250.498 359.608 253.762 356.6C256.578 354.04 260.29 352.76 264.898 352.76C270.85 352.76 275.426 354.936 278.626 359.288C281.378 363 282.754 367.864 282.754 373.88C282.754 380.728 280.994 386.072 277.474 389.912C274.402 393.304 270.402 395 265.474 395C259.458 395 254.978 393.08 252.034 389.24C249.154 393.08 244.834 395 239.074 395H234.946V389.048H238.306C245.346 389.048 248.866 385.4 248.866 378.104V369.272ZM255.298 378.488C255.298 385.528 258.754 389.048 265.666 389.048C268.994 389.048 271.618 387.704 273.538 385.016C275.458 382.328 276.418 378.584 276.418 373.784C276.418 369.048 275.394 365.336 273.346 362.648C271.362 359.96 268.546 358.616 264.898 358.616C258.498 358.616 255.298 362.36 255.298 369.848V378.488Z" fill="#00CCBB"/>
<path d="M173.135 130.942L156 148.743L139.031 130.942H98.2736C93.4492 130.942 89.4566 132.606 86.1294 135.933C82.8023 139.26 81.1387 143.253 81.1387 147.911V283.992L123.893 270.35V165.046H134.706V266.857L156 260.203L177.46 267.023V165.046H188.273V270.35L230.861 283.992V147.911C230.861 143.253 229.197 139.26 225.87 135.933C222.543 132.606 218.55 130.942 213.892 130.942H173.135Z" fill="#00CCBB"/>
<path fill-rule="evenodd" clip-rule="evenodd" d="M85.0769 62.8182C88.6098 55.276 83.1985 46.5269 74.8599 46.3368C68.7645 46.1978 63.5151 50.904 63.0369 56.9824C62.5153 63.6041 67.5924 69.1819 74.0296 69.4859C76.8831 74.929 83.061 87.6096 87.3639 102.923C87.584 103.706 88.2938 104.251 89.1075 104.251H222.227C223.04 104.251 223.75 103.706 223.97 102.923C228.273 87.6129 234.448 74.929 237.301 69.4859C243.742 69.1855 248.819 63.603 248.297 56.9813C247.818 50.904 242.57 46.1986 236.475 46.3368C228.138 46.5258 222.724 55.2767 226.257 62.8182C219.904 68.2081 211.043 73.7573 206.301 72.57C205.834 72.4542 203.467 69.5221 203.448 58.3984C203.441 53.8519 203.832 49.3417 204.198 46.1236C209.944 45.0181 214.186 39.655 213.514 33.4604C212.836 27.2217 207.404 22.7552 201.144 23.1968C192.584 23.8006 187.576 33.4003 192.126 40.7953C187.767 47.2928 180.915 54.8184 176.13 55.0175C175.525 54.6773 171.656 51.9479 166.454 35.7348C164.241 28.835 162.403 21.1198 162.403 20.9985C165.339 18.899 167.25 15.4602 167.25 11.5834C167.25 4.92072 161.602 -0.442762 154.841 0.0289005C149.099 0.429252 144.463 5.10388 144.107 10.8478C143.848 15.0229 145.811 18.7672 148.931 20.9985C148.931 21.1458 146.86 29.5612 144.88 35.7348C139.679 51.9479 135.809 54.6773 135.204 55.0175C130.419 54.8184 123.57 47.2965 119.208 40.7953C123.76 33.3975 118.747 23.7984 110.186 23.1964C103.927 22.7563 98.497 27.2235 97.8201 33.4615C97.1479 39.6558 101.391 45.0181 107.136 46.1236C107.502 49.3417 107.893 53.8519 107.885 58.3984C107.867 69.5221 105.5 72.4542 105.033 72.57C100.291 73.7537 91.4296 68.2081 85.0769 62.8182ZM164.354 82.5317C164.354 90.3252 160.861 95.5631 155.667 95.5631C150.472 95.5631 146.979 90.3252 146.979 82.5317C146.979 74.7383 150.472 69.5004 155.667 69.5004C160.861 69.5004 164.354 74.7383 164.354 82.5317ZM219.376 133.191C219.377 128.078 219.848 122.946 220.645 117.926C220.82 116.828 219.972 115.834 218.86 115.834H92.4739C91.3615 115.834 90.5141 116.828 90.6886 117.926C91.4857 122.946 91.957 128.078 91.9581 133.191C91.9588 136.392 94.5176 139.001 97.7183 139.001H213.615C216.816 139.001 219.375 136.392 219.376 133.191Z" fill="url(#paint0_linear_408_39)"/>
<rect x="145.02" y="134.861" width="26.0258" height="17.7449" fill="#00CCBB"/>
<defs>
<linearGradient id="paint0_linear_408_39" x1="155.667" y1="115.834" x2="155.667" y2="139.001" gradientUnits="userSpaceOnUse">
<stop stop-color="#FFDA00"/>
<stop offset="1" stop-color="#00CCBB"/>
</linearGradient>
</defs>
</svg>
