<svg width="36" height="24" viewBox="0 0 36 24" fill="none" xmlns="http://www.w3.org/2000/svg">
<g clip-path="url(#clip0_1794_1814)">
<path d="M36 0H0V24H36V0Z" fill="#007E3C"/>
<path d="M36 0H0V16H36V0Z" fill="#DF1A23"/>
<path d="M36 0H0V8H36V0Z" fill="white"/>
<path d="M12 0H0V24H12V0Z" fill="#DF1A23"/>
<path d="M4.53976 4.10571H3.57259C3.51932 4.10571 3.47614 4.15971 3.47614 4.22631V4.83379C3.47614 4.9004 3.51932 4.95439 3.57259 4.95439H4.53976C4.59302 4.95439 4.63621 4.9004 4.63621 4.83379V4.22631C4.63621 4.15971 4.59302 4.10571 4.53976 4.10571Z" fill="white" stroke="#DB161B" stroke-width="0.01512"/>
<path d="M4.515 4.14087H3.59742C3.54689 4.14087 3.50592 4.19037 3.50592 4.25143V4.80827C3.50592 4.86933 3.54689 4.91883 3.59742 4.91883H4.515C4.56553 4.91883 4.6065 4.86933 4.6065 4.80827V4.25143C4.6065 4.19037 4.56553 4.14087 4.515 4.14087Z" fill="white" stroke="#DB161B" stroke-width="0.01408"/>
<path fill-rule="evenodd" clip-rule="evenodd" d="M4.01766 4.35327L4.07325 4.35567L4.07577 4.38927L4.12125 4.42007L4.15665 4.38167L4.19958 4.41247L4.15917 4.44607L4.16928 4.49247L4.2198 4.49007V4.55207L4.17939 4.54927L4.15917 4.58807L4.20465 4.63207L4.16928 4.66807L4.13136 4.62927L4.07577 4.64487L4.07829 4.70167L4.01766 4.70687L4.01007 4.65247L3.95955 4.62407L3.93174 4.66287L3.88878 4.63447L3.91407 4.59047L3.88374 4.56207H3.84078L3.83826 4.48207L3.88122 4.48727L3.91152 4.44087L3.87615 4.40487L3.92163 4.36327L3.95448 4.39687L4.01007 4.38687L4.01766 4.35327Z" fill="white" stroke="#DB161B" stroke-width="0.00888"/>
<path d="M4.03444 4.59055C4.06816 4.59055 4.09549 4.55935 4.09549 4.52086C4.09549 4.48237 4.06816 4.45117 4.03444 4.45117C4.00072 4.45117 3.97339 4.48237 3.97339 4.52086C3.97339 4.55935 4.00072 4.59055 4.03444 4.59055Z" fill="white" stroke="#DB161B" stroke-width="0.00957808"/>
<path fill-rule="evenodd" clip-rule="evenodd" d="M3.65459 4.17651L3.56537 4.28251L3.65459 4.17651ZM3.71408 4.17651L3.62486 4.28251L3.71408 4.17651ZM3.77357 4.17651L3.68435 4.28251L3.77357 4.17651ZM3.83306 4.17651L3.74384 4.28251L3.83306 4.17651ZM3.89255 4.17651L3.80333 4.28251L3.89255 4.17651ZM3.95204 4.17651L3.86282 4.28251L3.95204 4.17651ZM4.01156 4.17651L3.92231 4.28251L4.01156 4.17651ZM4.07105 4.17651L3.9818 4.28251L4.07105 4.17651ZM4.13054 4.17651L4.04129 4.28251L4.13054 4.17651ZM4.19003 4.17651L4.10078 4.28251L4.19003 4.17651ZM4.24952 4.17651L4.16027 4.28251L4.24952 4.17651ZM4.30901 4.17651L4.21976 4.28251L4.30901 4.17651ZM4.07105 4.17651L3.9818 4.28251L4.07105 4.17651ZM4.3685 4.17651L4.27925 4.28251L4.3685 4.17651ZM4.42799 4.17651L4.33874 4.28251L4.42799 4.17651ZM4.48748 4.17651L4.39823 4.28251L4.48748 4.17651ZM4.547 4.17651L4.45772 4.28251L4.547 4.17651ZM4.45772 4.17651L4.547 4.28251L4.45772 4.17651ZM4.39823 4.17651L4.48748 4.28251L4.39823 4.17651ZM4.33874 4.17651L4.42799 4.28251L4.33874 4.17651ZM4.27925 4.17651L4.3685 4.28251L4.27925 4.17651ZM4.21976 4.17651L4.30901 4.28251L4.21976 4.17651ZM4.16027 4.17651L4.24952 4.28251L4.16027 4.17651ZM4.10078 4.17651L4.19003 4.28251L4.10078 4.17651ZM4.04129 4.17651L4.13054 4.28251L4.04129 4.17651ZM3.9818 4.17651L4.07105 4.28251L3.9818 4.17651ZM3.92231 4.17651L4.01156 4.28251L3.92231 4.17651ZM3.86282 4.17651L3.95207 4.28251L3.86282 4.17651ZM3.80333 4.17651L3.89255 4.28251L3.80333 4.17651ZM4.04129 4.17651L4.13054 4.28251L4.04129 4.17651ZM3.74384 4.17651L3.83306 4.28251L3.74384 4.17651ZM3.68435 4.17651L3.77357 4.28251L3.68435 4.17651ZM3.62486 4.17651L3.71408 4.28251L3.62486 4.17651ZM3.56537 4.17651L3.65459 4.28251L3.56537 4.17651ZM3.65459 4.77731L3.56537 4.88371L3.65459 4.77731ZM3.71408 4.77731L3.62486 4.88371L3.71408 4.77731ZM3.77357 4.77731L3.68435 4.88371L3.77357 4.77731ZM3.83306 4.77731L3.74384 4.88371L3.83306 4.77731ZM3.89255 4.77731L3.80333 4.88371L3.89255 4.77731ZM3.95204 4.77731L3.86282 4.88371L3.95204 4.77731ZM4.01156 4.77731L3.92231 4.88371L4.01156 4.77731ZM4.07105 4.77731L3.9818 4.88371L4.07105 4.77731ZM4.13054 4.77731L4.04129 4.88371L4.13054 4.77731ZM4.19003 4.77731L4.10078 4.88371L4.19003 4.77731ZM4.24952 4.77731L4.16027 4.88371L4.24952 4.77731ZM4.30901 4.77731L4.21976 4.88371L4.30901 4.77731ZM4.07105 4.77731L3.9818 4.88371L4.07105 4.77731ZM4.3685 4.77731L4.27925 4.88371L4.3685 4.77731ZM4.42799 4.77731L4.33874 4.88371L4.42799 4.77731ZM4.48748 4.77731L4.39823 4.88371L4.48748 4.77731ZM4.547 4.77731L4.45772 4.88371L4.547 4.77731ZM4.45772 4.77731L4.547 4.88371L4.45772 4.77731ZM4.39823 4.77731L4.48748 4.88371L4.39823 4.77731ZM4.33874 4.77731L4.42799 4.88371L4.33874 4.77731ZM4.27925 4.77731L4.3685 4.88371L4.27925 4.77731ZM4.21976 4.77731L4.30901 4.88371L4.21976 4.77731ZM4.16027 4.77731L4.24952 4.88371L4.16027 4.77731ZM4.10078 4.77731L4.19003 4.88371L4.10078 4.77731ZM4.04129 4.77731L4.13054 4.88371L4.04129 4.77731ZM3.9818 4.77731L4.07105 4.88371L3.9818 4.77731ZM3.92231 4.77731L4.01156 4.88371L3.92231 4.77731ZM3.86282 4.77731L3.95207 4.88371L3.86282 4.77731ZM3.80333 4.77731L3.89255 4.88371L3.80333 4.77731ZM4.04129 4.77731L4.13054 4.88371L4.04129 4.77731ZM3.74384 4.77731L3.83306 4.88371L3.74384 4.77731ZM3.68435 4.77731L3.77357 4.88371L3.68435 4.77731ZM3.62486 4.77731L3.71408 4.88371L3.62486 4.77731ZM3.56537 4.77731L3.65459 4.88371L3.56537 4.77731Z" fill="white"/>
<path d="M3.65459 4.17651L3.56537 4.28251M3.71408 4.17651L3.62486 4.28251M3.77357 4.17651L3.68435 4.28251M3.83306 4.17651L3.74384 4.28251M3.89255 4.17651L3.80333 4.28251M3.95204 4.17651L3.86282 4.28251M4.01156 4.17651L3.92231 4.28251M4.07105 4.17651L3.9818 4.28251M4.13054 4.17651L4.04129 4.28251M4.19003 4.17651L4.10078 4.28251M4.24952 4.17651L4.16027 4.28251M4.30901 4.17651L4.21976 4.28251M4.3685 4.17651L4.27925 4.28251M4.42799 4.17651L4.33874 4.28251M4.48748 4.17651L4.39823 4.28251M4.547 4.17651L4.45772 4.28251M4.45772 4.17651L4.547 4.28251M4.39823 4.17651L4.48748 4.28251M4.33874 4.17651L4.42799 4.28251M4.27925 4.17651L4.3685 4.28251M4.21976 4.17651L4.30901 4.28251M4.16027 4.17651L4.24952 4.28251M4.10078 4.17651L4.19003 4.28251M4.04129 4.17651L4.13054 4.28251M3.9818 4.17651L4.07105 4.28251M3.92231 4.17651L4.01156 4.28251M3.86282 4.17651L3.95207 4.28251M3.80333 4.17651L3.89255 4.28251M3.74384 4.17651L3.83306 4.28251M3.68435 4.17651L3.77357 4.28251M3.62486 4.17651L3.71408 4.28251M3.56537 4.17651L3.65459 4.28251M3.65459 4.77731L3.56537 4.88371M3.71408 4.77731L3.62486 4.88371M3.77357 4.77731L3.68435 4.88371M3.83306 4.77731L3.74384 4.88371M3.89255 4.77731L3.80333 4.88371M3.95204 4.77731L3.86282 4.88371M4.01156 4.77731L3.92231 4.88371M4.07105 4.77731L3.9818 4.88371M4.13054 4.77731L4.04129 4.88371M4.19003 4.77731L4.10078 4.88371M4.24952 4.77731L4.16027 4.88371M4.30901 4.77731L4.21976 4.88371M4.3685 4.77731L4.27925 4.88371M4.42799 4.77731L4.33874 4.88371M4.48748 4.77731L4.39823 4.88371M4.547 4.77731L4.45772 4.88371M4.45772 4.77731L4.547 4.88371M4.39823 4.77731L4.48748 4.88371M4.33874 4.77731L4.42799 4.88371M4.27925 4.77731L4.3685 4.88371M4.21976 4.77731L4.30901 4.88371M4.16027 4.77731L4.24952 4.88371M4.10078 4.77731L4.19003 4.88371M4.04129 4.77731L4.13054 4.88371M3.9818 4.77731L4.07105 4.88371M3.92231 4.77731L4.01156 4.88371M3.86282 4.77731L3.95207 4.88371M3.80333 4.77731L3.89255 4.88371M3.74384 4.77731L3.83306 4.88371M3.68435 4.77731L3.77357 4.88371M3.62486 4.77731L3.71408 4.88371M3.56537 4.77731L3.65459 4.88371" stroke="#DB161B" stroke-width="0.01408"/>
<path d="M7.46067 4.10571H8.42784C8.48111 4.10571 8.52429 4.15971 8.52429 4.22631V4.83379C8.52429 4.9004 8.48111 4.95439 8.42784 4.95439H7.46067C7.4074 4.95439 7.36422 4.9004 7.36422 4.83379V4.22631C7.36422 4.15971 7.4074 4.10571 7.46067 4.10571Z" fill="white" stroke="#DB161B" stroke-width="0.01512"/>
<path d="M7.48543 4.14087H8.40301C8.45354 4.14087 8.49451 4.19037 8.49451 4.25143V4.80827C8.49451 4.86933 8.45354 4.91883 8.40301 4.91883H7.48543C7.43489 4.91883 7.39393 4.86933 7.39393 4.80827V4.25143C7.39393 4.19037 7.43489 4.14087 7.48543 4.14087Z" fill="white" stroke="#DB161B" stroke-width="0.01408"/>
<path fill-rule="evenodd" clip-rule="evenodd" d="M7.98277 4.35327L7.92718 4.35567L7.92466 4.38927L7.87918 4.42007L7.84378 4.38167L7.80085 4.41247L7.84126 4.44607L7.83115 4.49247L7.78063 4.49007V4.55207L7.82104 4.54927L7.84126 4.58807L7.79578 4.63207L7.83115 4.66807L7.86907 4.62927L7.92466 4.64487L7.92214 4.70167L7.98277 4.70687L7.99036 4.65247L8.04088 4.62407L8.06869 4.66287L8.11165 4.63447L8.08636 4.59047L8.11669 4.56207H8.15965L8.16217 4.48207L8.11921 4.48727L8.08891 4.44087L8.12428 4.40487L8.0788 4.36327L8.04595 4.39687L7.99036 4.38687L7.98277 4.35327Z" fill="white" stroke="#DB161B" stroke-width="0.00888"/>
<path d="M7.96599 4.59055C7.93227 4.59055 7.90494 4.55935 7.90494 4.52086C7.90494 4.48237 7.93227 4.45117 7.96599 4.45117C7.99971 4.45117 8.02704 4.48237 8.02704 4.52086C8.02704 4.55935 7.99971 4.59055 7.96599 4.59055Z" fill="white" stroke="#DB161B" stroke-width="0.00957808"/>
<path fill-rule="evenodd" clip-rule="evenodd" d="M8.34584 4.17651L8.43506 4.28251L8.34584 4.17651ZM8.28635 4.17651L8.37557 4.28251L8.28635 4.17651ZM8.22686 4.17651L8.31608 4.28251L8.22686 4.17651ZM8.16737 4.17651L8.25659 4.28251L8.16737 4.17651ZM8.10788 4.17651L8.1971 4.28251L8.10788 4.17651ZM8.04839 4.17651L8.13761 4.28251L8.04839 4.17651ZM7.98887 4.17651L8.07812 4.28251L7.98887 4.17651ZM7.92938 4.17651L8.01863 4.28251L7.92938 4.17651ZM7.86989 4.17651L7.95914 4.28251L7.86989 4.17651ZM7.8104 4.17651L7.89965 4.28251L7.8104 4.17651ZM7.75091 4.17651L7.84016 4.28251L7.75091 4.17651ZM7.69142 4.17651L7.78067 4.28251L7.69142 4.17651ZM7.92938 4.17651L8.01863 4.28251L7.92938 4.17651ZM7.63193 4.17651L7.72118 4.28251L7.63193 4.17651ZM7.57244 4.17651L7.66169 4.28251L7.57244 4.17651ZM7.51295 4.17651L7.6022 4.28251L7.51295 4.17651ZM7.45343 4.17651L7.54271 4.28251L7.45343 4.17651ZM7.54271 4.17651L7.45343 4.28251L7.54271 4.17651ZM7.6022 4.17651L7.51295 4.28251L7.6022 4.17651ZM7.66169 4.17651L7.57244 4.28251L7.66169 4.17651ZM7.72118 4.17651L7.63193 4.28251L7.72118 4.17651ZM7.78067 4.17651L7.69142 4.28251L7.78067 4.17651ZM7.84016 4.17651L7.75091 4.28251L7.84016 4.17651ZM7.89965 4.17651L7.8104 4.28251L7.89965 4.17651ZM7.95914 4.17651L7.86989 4.28251L7.95914 4.17651ZM8.01863 4.17651L7.92938 4.28251L8.01863 4.17651ZM8.07812 4.17651L7.98887 4.28251L8.07812 4.17651ZM8.13761 4.17651L8.04836 4.28251L8.13761 4.17651ZM8.1971 4.17651L8.10788 4.28251L8.1971 4.17651ZM7.95914 4.17651L7.86989 4.28251L7.95914 4.17651ZM8.25659 4.17651L8.16737 4.28251L8.25659 4.17651ZM8.31608 4.17651L8.22686 4.28251L8.31608 4.17651ZM8.37557 4.17651L8.28635 4.28251L8.37557 4.17651ZM8.43506 4.17651L8.34584 4.28251L8.43506 4.17651ZM8.34584 4.77731L8.43506 4.88371L8.34584 4.77731ZM8.28635 4.77731L8.37557 4.88371L8.28635 4.77731ZM8.22686 4.77731L8.31608 4.88371L8.22686 4.77731ZM8.16737 4.77731L8.25659 4.88371L8.16737 4.77731ZM8.10788 4.77731L8.1971 4.88371L8.10788 4.77731ZM8.04839 4.77731L8.13761 4.88371L8.04839 4.77731ZM7.98887 4.77731L8.07812 4.88371L7.98887 4.77731ZM7.92938 4.77731L8.01863 4.88371L7.92938 4.77731ZM7.86989 4.77731L7.95914 4.88371L7.86989 4.77731ZM7.8104 4.77731L7.89965 4.88371L7.8104 4.77731ZM7.75091 4.77731L7.84016 4.88371L7.75091 4.77731ZM7.69142 4.77731L7.78067 4.88371L7.69142 4.77731ZM7.92938 4.77731L8.01863 4.88371L7.92938 4.77731ZM7.63193 4.77731L7.72118 4.88371L7.63193 4.77731ZM7.57244 4.77731L7.66169 4.88371L7.57244 4.77731ZM7.51295 4.77731L7.6022 4.88371L7.51295 4.77731ZM7.45343 4.77731L7.54271 4.88371L7.45343 4.77731ZM7.54271 4.77731L7.45343 4.88371L7.54271 4.77731ZM7.6022 4.77731L7.51295 4.88371L7.6022 4.77731ZM7.66169 4.77731L7.57244 4.88371L7.66169 4.77731ZM7.72118 4.77731L7.63193 4.88371L7.72118 4.77731ZM7.78067 4.77731L7.69142 4.88371L7.78067 4.77731ZM7.84016 4.77731L7.75091 4.88371L7.84016 4.77731ZM7.89965 4.77731L7.8104 4.88371L7.89965 4.77731ZM7.95914 4.77731L7.86989 4.88371L7.95914 4.77731ZM8.01863 4.77731L7.92938 4.88371L8.01863 4.77731ZM8.07812 4.77731L7.98887 4.88371L8.07812 4.77731ZM8.13761 4.77731L8.04836 4.88371L8.13761 4.77731ZM8.1971 4.77731L8.10788 4.88371L8.1971 4.77731ZM7.95914 4.77731L7.86989 4.88371L7.95914 4.77731ZM8.25659 4.77731L8.16737 4.88371L8.25659 4.77731ZM8.31608 4.77731L8.22686 4.88371L8.31608 4.77731ZM8.37557 4.77731L8.28635 4.88371L8.37557 4.77731ZM8.43506 4.77731L8.34584 4.88371L8.43506 4.77731Z" fill="white"/>
<path d="M8.34584 4.17651L8.43506 4.28251M8.28635 4.17651L8.37557 4.28251M8.22686 4.17651L8.31608 4.28251M8.16737 4.17651L8.25659 4.28251M8.10788 4.17651L8.1971 4.28251M8.04839 4.17651L8.13761 4.28251M7.98887 4.17651L8.07812 4.28251M7.92938 4.17651L8.01863 4.28251M7.86989 4.17651L7.95914 4.28251M7.8104 4.17651L7.89965 4.28251M7.75091 4.17651L7.84016 4.28251M7.69142 4.17651L7.78067 4.28251M7.63193 4.17651L7.72118 4.28251M7.57244 4.17651L7.66169 4.28251M7.51295 4.17651L7.6022 4.28251M7.45343 4.17651L7.54271 4.28251M7.54271 4.17651L7.45343 4.28251M7.6022 4.17651L7.51295 4.28251M7.66169 4.17651L7.57244 4.28251M7.72118 4.17651L7.63193 4.28251M7.78067 4.17651L7.69142 4.28251M7.84016 4.17651L7.75091 4.28251M7.89965 4.17651L7.8104 4.28251M7.95914 4.17651L7.86989 4.28251M8.01863 4.17651L7.92938 4.28251M8.07812 4.17651L7.98887 4.28251M8.13761 4.17651L8.04836 4.28251M8.1971 4.17651L8.10788 4.28251M8.25659 4.17651L8.16737 4.28251M8.31608 4.17651L8.22686 4.28251M8.37557 4.17651L8.28635 4.28251M8.43506 4.17651L8.34584 4.28251M8.34584 4.77731L8.43506 4.88371M8.28635 4.77731L8.37557 4.88371M8.22686 4.77731L8.31608 4.88371M8.16737 4.77731L8.25659 4.88371M8.10788 4.77731L8.1971 4.88371M8.04839 4.77731L8.13761 4.88371M7.98887 4.77731L8.07812 4.88371M7.92938 4.77731L8.01863 4.88371M7.86989 4.77731L7.95914 4.88371M7.8104 4.77731L7.89965 4.88371M7.75091 4.77731L7.84016 4.88371M7.69142 4.77731L7.78067 4.88371M7.63193 4.77731L7.72118 4.88371M7.57244 4.77731L7.66169 4.88371M7.51295 4.77731L7.6022 4.88371M7.45343 4.77731L7.54271 4.88371M7.54271 4.77731L7.45343 4.88371M7.6022 4.77731L7.51295 4.88371M7.66169 4.77731L7.57244 4.88371M7.72118 4.77731L7.63193 4.88371M7.78067 4.77731L7.69142 4.88371M7.84016 4.77731L7.75091 4.88371M7.89965 4.77731L7.8104 4.88371M7.95914 4.77731L7.86989 4.88371M8.01863 4.77731L7.92938 4.88371M8.07812 4.77731L7.98887 4.88371M8.13761 4.77731L8.04836 4.88371M8.1971 4.77731L8.10788 4.88371M8.25659 4.77731L8.16737 4.88371M8.31608 4.77731L8.22686 4.88371M8.37557 4.77731L8.28635 4.88371M8.43506 4.77731L8.34584 4.88371" stroke="#DB161B" stroke-width="0.01408"/>
<path fill-rule="evenodd" clip-rule="evenodd" d="M5.29571 5.88491C3.85229 7.76691 3.23657 8.00491 3.52553 8.15651C3.81449 8.30811 4.74401 7.33691 5.71121 6.04651C6.67841 4.75651 7.27061 3.60827 6.98171 3.45663C6.69281 3.30495 6.83081 3.88311 5.29571 5.88491Z" fill="white" stroke="#DB161B" stroke-width="0.0226"/>
<path fill-rule="evenodd" clip-rule="evenodd" d="M4.08065 7.25244L4.58621 7.42924C4.11038 8.03044 3.57497 8.27804 3.42626 8.17204C3.27752 8.06604 3.69395 7.81844 4.08065 7.25244Z" fill="white" stroke="#DB161B" stroke-width="0.0132"/>
<path fill-rule="evenodd" clip-rule="evenodd" d="M4.08067 7.32324L4.4971 7.46484C4.03351 8.04284 3.57499 8.20724 3.45634 8.13684C3.33703 8.06604 3.70399 7.86724 4.08067 7.32324Z" fill="white" stroke="#DB161B" stroke-width="0.0132"/>
<path d="M5.63409 5.80249C5.63289 5.81169 5.62959 5.85209 5.62659 5.86809C5.62659 5.89049 5.62479 5.90729 5.62299 5.92489C5.61819 5.94009 5.61909 5.95409 5.60439 5.95969C5.59449 5.97809 5.58819 5.98289 5.57499 5.99049C5.56599 5.99969 5.55219 6.00889 5.53779 6.01649C5.52309 6.02409 5.50959 6.02489 5.49369 6.02089C5.48049 6.01009 5.47119 5.99929 5.46039 5.99049C5.45769 5.97649 5.45559 5.95609 5.45289 5.94249C5.45679 5.95649 5.45979 5.97889 5.46039 5.99889C5.45889 6.02089 5.45289 6.03049 5.44569 6.04689M5.49729 6.09489C5.49609 6.09369 5.49489 6.09209 5.49369 6.09049C5.50239 6.10089 5.49879 6.09609 5.47869 6.08209C5.46459 6.07329 5.44929 6.06849 5.43069 6.06449H5.37909C5.35899 6.06449 5.34549 6.06809 5.33109 6.07329C5.32059 6.08569 5.30499 6.09249 5.29419 6.10369C5.28279 6.11289 5.27799 6.12369 5.27199 6.13849C5.26179 6.15049 5.25519 6.16889 5.24589 6.17809C5.24199 6.19809 5.23329 6.19729 5.22759 6.21289C5.24499 6.21449 5.25909 6.21729 5.26809 6.23009C5.28369 6.23969 5.25519 6.22089 5.24979 6.21289C5.23749 6.20849 5.23449 6.20409 5.21649 6.20409C5.19969 6.19769 5.18949 6.20929 5.17209 6.21289C5.16219 6.21969 5.15919 6.22169 5.14629 6.22169M5.29779 6.31329C5.29029 6.31369 5.25579 6.32129 5.24229 6.31329C5.22729 6.30849 5.21829 6.29889 5.20899 6.28249C5.20449 6.27089 5.20899 6.30369 5.20899 6.31769C5.20749 6.34329 5.20089 6.34369 5.19069 6.36129C5.17989 6.36929 5.16849 6.38089 5.15739 6.38729C5.14809 6.39689 5.13669 6.40329 5.12409 6.40929C5.11299 6.41529 5.09979 6.42169 5.09079 6.43089C5.07849 6.44129 5.07969 6.45409 5.07249 6.47009C5.07369 6.49169 5.07669 6.50369 5.08719 6.51409C5.09139 6.52849 5.10129 6.54329 5.10939 6.55329C5.11839 6.57329 5.12859 6.58249 5.10549 6.58809C5.09289 6.59449 5.08599 6.58929 5.07249 6.58809M5.06499 6.61849C5.05599 6.61609 5.02359 6.60329 5.00949 6.59689H4.95789C4.93779 6.59849 4.93389 6.60569 4.91709 6.61409C4.90629 6.62729 4.89879 6.63649 4.88379 6.64489C4.87599 6.65689 4.86039 6.67729 4.85439 6.69289C4.84989 6.70769 4.84689 6.72769 4.84689 6.74969C4.84719 6.77489 4.85289 6.77929 4.85439 6.80209C4.85859 6.82049 4.86519 6.83769 4.87659 6.85409C4.87809 6.85969 4.87929 6.86129 4.88379 6.86289M4.88889 6.92009C4.88739 6.92009 4.88379 6.93129 4.87839 6.94089C4.86669 6.95689 4.86519 6.95809 4.84689 6.95809C4.83069 6.95729 4.83219 6.94969 4.82079 6.94409C4.81539 6.93329 4.80849 6.92449 4.80249 6.90969C4.79829 6.90089 4.79439 6.88689 4.78929 6.87889C4.78449 6.86849 4.77849 6.86089 4.77339 6.85129C4.76859 6.84849 4.76679 6.84569 4.76049 6.84449C4.77549 6.84769 4.77669 6.85449 4.78659 6.86489C4.79109 6.87489 4.79589 6.88489 4.79979 6.89609C4.80129 6.91089 4.80489 6.92249 4.80489 6.94089C4.80489 6.95969 4.80489 6.97329 4.79979 6.98889C4.79349 6.99769 4.78899 7.00649 4.78149 7.01329C4.77519 7.02089 4.76769 7.03129 4.76289 7.04049C4.75479 7.04729 4.74879 7.05289 4.73949 7.06129C4.73139 7.06729 4.72299 7.07369 4.71069 7.07529C4.69509 7.07369 4.69059 7.06809 4.67919 7.06129C4.66929 7.05169 4.66149 7.04569 4.65279 7.03729C4.64589 7.03089 4.63899 7.01849 4.63449 7.00969C4.62039 7.00489 4.61139 7.00689 4.60299 7.01649C4.59579 7.02289 4.58949 7.03129 4.58469 7.04049C4.58019 7.04329 4.57329 7.05169 4.56879 7.05449M4.59999 7.06249C4.60419 7.06489 4.61919 7.07889 4.62609 7.08409C4.63029 7.10209 4.63689 7.11209 4.63899 7.13129C4.64259 7.15009 4.64229 7.17049 4.64229 7.19169C4.63869 7.21369 4.63179 7.22969 4.62609 7.24729C4.61559 7.25689 4.61049 7.26329 4.59669 7.27329C4.58379 7.27569 4.57089 7.27769 4.55439 7.27769C4.54419 7.28209 4.52499 7.28409 4.51509 7.27769C4.50069 7.27489 4.4898 7.26729 4.47927 7.26049C4.46721 7.25129 4.4598 7.24289 4.44663 7.23449C4.44024 7.22209 4.43031 7.21089 4.42056 7.19569C4.41243 7.18129 4.40646 7.17329 4.40097 7.15729C4.4058 7.17569 4.41312 7.19169 4.41729 7.20889C4.4247 7.22689 4.42902 7.23369 4.43034 7.25609C4.43487 7.27409 4.43361 7.29569 4.43361 7.31609C4.43217 7.33009 4.43142 7.35649 4.42707 7.36769V7.38089M4.11765 7.44929V7.45569C4.11765 7.43889 4.11732 7.44729 4.1229 7.48049C4.1328 7.49529 4.15602 7.49929 4.17537 7.49289C4.19235 7.47649 4.19181 7.46369 4.22259 7.45569C4.25232 7.45809 4.26366 7.46849 4.28031 7.48049C4.30005 7.49209 4.30917 7.49809 4.32228 7.52409C4.32879 7.54529 4.33242 7.55969 4.31178 7.56769C4.29537 7.58169 4.27587 7.58929 4.25406 7.59289C4.22982 7.59289 4.21236 7.58929 4.20159 7.60529C4.18494 7.62569 4.18587 7.63809 4.18587 7.67369C4.18026 7.68489 4.17915 7.71769 4.17537 7.73009C4.16079 7.73809 4.15224 7.74249 4.12815 7.74249C4.12248 7.72329 4.11621 7.68849 4.1124 7.66769C4.10829 7.64529 4.10703 7.61409 4.09665 7.59889C4.08651 7.58149 4.07407 7.56671 4.05993 7.55529C4.05351 7.54449 4.04127 7.53569 4.02846 7.53049C4.04904 7.54289 4.05198 7.55649 4.05468 7.58649C4.03659 7.59729 4.03176 7.60489 4.00221 7.60529C3.97317 7.60249 3.96615 7.59369 3.95499 7.57409C3.95298 7.60529 3.94455 7.61569 3.93927 7.64289C3.92847 7.66169 3.92388 7.68089 3.91302 7.70489C3.91764 7.73529 3.9276 7.73649 3.92877 7.77369C3.93558 7.79809 3.93483 7.82129 3.94974 7.83609C3.9564 7.84569 3.96138 7.84769 3.97599 7.84849C3.9456 7.84849 3.9279 7.84449 3.90777 7.82969C3.8922 7.81849 3.88044 7.80409 3.8658 7.79249C3.84723 7.77649 3.82428 7.76169 3.80283 7.75489C3.77859 7.75489 3.76113 7.75169 3.75036 7.76729C3.73551 7.78009 3.72552 7.80169 3.71889 7.82969C3.71403 7.86209 3.71217 7.88369 3.72414 7.90449C3.73302 7.92889 3.73503 7.93809 3.72414 7.96689C3.71193 7.98729 3.69378 7.98969 3.66642 7.99809C3.6486 7.99709 3.63095 7.99292 3.61395 7.98569" stroke="#DB161B" stroke-width="0.0132"/>
<path fill-rule="evenodd" clip-rule="evenodd" d="M6.94271 4.18646C7.58321 2.71213 8.00831 1.45757 7.89131 1.38589C7.77461 1.31425 7.16021 2.45249 6.51971 3.92661L6.94271 4.18646Z" fill="white" stroke="#DB161B" stroke-width="0.01788"/>
<path fill-rule="evenodd" clip-rule="evenodd" d="M6.90041 4.16044C7.51811 2.73816 7.94381 1.53748 7.85051 1.48016C7.75721 1.42284 7.18001 2.53048 6.56201 3.95256" fill="white"/>
<path d="M6.90041 4.16044C7.51811 2.73816 7.94381 1.53748 7.85051 1.48016C7.75721 1.42284 7.18001 2.53048 6.56201 3.95256" stroke="#DB161B" stroke-width="0.01572"/>
<path fill-rule="evenodd" clip-rule="evenodd" d="M6.79421 3.41846C6.71891 3.58474 6.63941 3.77478 6.56201 3.95254L6.90041 4.16042C6.97751 3.9825 7.06181 3.79522 7.13231 3.62618L6.79421 3.41846Z" fill="white" stroke="#DB161B" stroke-width="0.01784"/>
<path fill-rule="evenodd" clip-rule="evenodd" d="M6.8227 3.47583C6.7477 3.64211 6.6952 3.76935 6.6181 3.94711L6.8716 4.10283C6.949 3.92515 7.006 3.80067 7.0765 3.63163L6.8227 3.47583Z" fill="white" stroke="#DB161B" stroke-width="0.01784"/>
<path d="M7.00677 3.66846L6.83764 3.56461L6.68749 3.91021L6.85663 4.01406L7.00677 3.66846Z" fill="white" stroke="#DB161B" stroke-width="0.01788"/>
<path fill-rule="evenodd" clip-rule="evenodd" d="M7.00694 3.66858L6.68774 3.9103L7.00694 3.66858ZM6.85664 4.0141L6.83774 3.5647L6.85664 4.0141ZM7.77134 1.90918L7.60214 1.8053L7.77134 1.90918Z" fill="white"/>
<path d="M7.00694 3.66858L6.68774 3.9103M6.85664 4.0141L6.83774 3.5647M7.77134 1.90918L7.60214 1.8053" stroke="#DB161B" stroke-width="0.01784"/>
<path d="M7.77149 1.74621C7.74513 1.75507 7.71894 1.73726 7.71299 1.70643C7.70704 1.67561 7.72359 1.64343 7.74994 1.63457C7.7763 1.62571 7.80249 1.64352 7.80844 1.67435C7.81439 1.70518 7.79784 1.73735 7.77149 1.74621Z" fill="#DB161B" stroke="#DB161B" stroke-width="0.0231388"/>
<path fill-rule="evenodd" clip-rule="evenodd" d="M6.7049 5.88491C8.14832 7.76691 8.76404 8.00491 8.47508 8.15651C8.18612 8.30811 7.2566 7.33691 6.2894 6.04651C5.3222 4.75651 4.73 3.60827 5.0189 3.45663C5.3078 3.30495 5.1698 3.88311 6.7049 5.88491Z" fill="white" stroke="#DB161B" stroke-width="0.0226"/>
<path fill-rule="evenodd" clip-rule="evenodd" d="M7.91996 7.25244L7.4144 7.42924C7.89023 8.03044 8.42564 8.27804 8.57435 8.17204C8.72309 8.06604 8.30666 7.81844 7.91996 7.25244Z" fill="white" stroke="#DB161B" stroke-width="0.0132"/>
<path fill-rule="evenodd" clip-rule="evenodd" d="M7.91994 7.32324L7.50351 7.46484C7.9671 8.04284 8.42562 8.20724 8.54427 8.13684C8.66358 8.06604 8.29662 7.86724 7.91994 7.32324Z" fill="white" stroke="#DB161B" stroke-width="0.0132"/>
<path d="M6.36652 5.80249C6.36772 5.81169 6.37102 5.85209 6.37402 5.86809C6.37402 5.89049 6.37582 5.90729 6.37762 5.92489C6.38242 5.94009 6.38152 5.95409 6.39622 5.95969C6.40612 5.97809 6.41242 5.98289 6.42562 5.99049C6.43462 5.99969 6.44842 6.00889 6.46282 6.01649C6.47752 6.02409 6.49102 6.02489 6.50692 6.02089C6.52012 6.01009 6.52942 5.99929 6.54022 5.99049C6.54292 5.97649 6.54502 5.95609 6.54772 5.94249C6.54382 5.95649 6.54082 5.97889 6.54022 5.99889C6.54172 6.02089 6.54772 6.03049 6.55492 6.04689M6.50332 6.09489C6.50452 6.09369 6.50572 6.09209 6.50692 6.09049C6.49822 6.10089 6.50182 6.09609 6.52192 6.08209C6.53602 6.07329 6.55132 6.06849 6.56992 6.06449H6.62152C6.64162 6.06449 6.65512 6.06809 6.66952 6.07329C6.68002 6.08569 6.69562 6.09249 6.70642 6.10369C6.71782 6.11289 6.72262 6.12369 6.72862 6.13849C6.73882 6.15049 6.74542 6.16889 6.75472 6.17809C6.75862 6.19809 6.76732 6.19729 6.77302 6.21289C6.75562 6.21449 6.74152 6.21729 6.73252 6.23009C6.71692 6.23969 6.74542 6.22089 6.75082 6.21289C6.76312 6.20849 6.76612 6.20409 6.78412 6.20409C6.80092 6.19769 6.81112 6.20929 6.82852 6.21289C6.83842 6.21969 6.84142 6.22169 6.85432 6.22169M6.70282 6.31329C6.71032 6.31369 6.74482 6.32129 6.75832 6.31329C6.77332 6.30849 6.78232 6.29889 6.79162 6.28249C6.79612 6.27089 6.79162 6.30369 6.79162 6.31769C6.79312 6.34329 6.79972 6.34369 6.80992 6.36129C6.82072 6.36929 6.83212 6.38089 6.84322 6.38729C6.85252 6.39689 6.86392 6.40329 6.87652 6.40929C6.88762 6.41529 6.90082 6.42169 6.90982 6.43089C6.92212 6.44129 6.92092 6.45409 6.92812 6.47009C6.92692 6.49169 6.92392 6.50369 6.91342 6.51409C6.90922 6.52849 6.89932 6.54329 6.89122 6.55329C6.88222 6.57329 6.87202 6.58249 6.89512 6.58809C6.90772 6.59449 6.91462 6.58929 6.92812 6.58809M6.93562 6.61849C6.94462 6.61609 6.97702 6.60329 6.99112 6.59689H7.04272C7.06282 6.59849 7.06672 6.60569 7.08352 6.61409C7.09432 6.62729 7.10182 6.63649 7.11682 6.64489C7.12462 6.65689 7.14022 6.67729 7.14622 6.69289C7.15072 6.70769 7.15372 6.72769 7.15372 6.74969C7.15342 6.77489 7.14772 6.77929 7.14622 6.80209C7.14202 6.82049 7.13542 6.83769 7.12402 6.85409C7.12252 6.85969 7.12132 6.86129 7.11682 6.86289M7.11172 6.92009C7.11322 6.92009 7.11682 6.93129 7.12222 6.94089C7.13392 6.95689 7.13542 6.95809 7.15372 6.95809C7.16992 6.95729 7.16842 6.94969 7.17982 6.94409C7.18522 6.93329 7.19212 6.92449 7.19812 6.90969C7.20232 6.90089 7.20622 6.88689 7.21132 6.87889C7.21612 6.86849 7.22212 6.86089 7.22722 6.85129C7.23202 6.84849 7.23382 6.84569 7.24012 6.84449C7.22512 6.84769 7.22392 6.85449 7.21402 6.86489C7.20952 6.87489 7.20472 6.88489 7.20082 6.89609C7.19932 6.91089 7.19572 6.92249 7.19572 6.94089C7.19572 6.95969 7.19572 6.97329 7.20082 6.98889C7.20712 6.99769 7.21162 7.00649 7.21912 7.01329C7.22542 7.02089 7.23292 7.03129 7.23772 7.04049C7.24582 7.04729 7.25182 7.05289 7.26112 7.06129C7.26922 7.06729 7.27762 7.07369 7.28992 7.07529C7.30552 7.07369 7.31002 7.06809 7.32142 7.06129C7.33132 7.05169 7.33912 7.04569 7.34782 7.03729C7.35472 7.03089 7.36162 7.01849 7.36612 7.00969C7.38022 7.00489 7.38922 7.00689 7.39762 7.01649C7.40482 7.02289 7.41112 7.03129 7.41592 7.04049C7.42042 7.04329 7.42732 7.05169 7.43182 7.05449M7.40062 7.06249C7.39642 7.06489 7.38142 7.07889 7.37452 7.08409C7.37032 7.10209 7.36372 7.11209 7.36162 7.13129C7.35802 7.15009 7.35832 7.17049 7.35832 7.19169C7.36192 7.21369 7.36882 7.22969 7.37452 7.24729C7.38502 7.25689 7.39012 7.26329 7.40392 7.27329C7.41682 7.27569 7.42972 7.27769 7.44622 7.27769C7.45642 7.28209 7.47562 7.28409 7.48552 7.27769C7.49992 7.27489 7.51081 7.26729 7.52134 7.26049C7.5334 7.25129 7.54081 7.24289 7.55398 7.23449C7.56037 7.22209 7.5703 7.21089 7.58005 7.19569C7.58818 7.18129 7.59415 7.17329 7.59964 7.15729C7.59481 7.17569 7.58749 7.19169 7.58332 7.20889C7.57591 7.22689 7.57159 7.23369 7.57027 7.25609C7.56574 7.27409 7.567 7.29569 7.567 7.31609C7.56844 7.33009 7.56919 7.35649 7.57354 7.36769V7.38089M7.88296 7.44929V7.45569C7.88296 7.43889 7.88329 7.44729 7.87771 7.48049C7.86781 7.49529 7.84459 7.49929 7.82524 7.49289C7.80826 7.47649 7.8088 7.46369 7.77802 7.45569C7.74829 7.45809 7.73695 7.46849 7.7203 7.48049C7.70056 7.49209 7.69144 7.49809 7.67833 7.52409C7.67182 7.54529 7.66819 7.55969 7.68883 7.56769C7.70524 7.58169 7.72474 7.58929 7.74655 7.59289C7.77079 7.59289 7.78825 7.58929 7.79902 7.60529C7.81567 7.62569 7.81474 7.63809 7.81474 7.67369C7.82035 7.68489 7.82146 7.71769 7.82524 7.73009C7.83982 7.73809 7.84837 7.74249 7.87246 7.74249C7.87813 7.72329 7.8844 7.68849 7.88821 7.66769C7.89232 7.64529 7.89358 7.61409 7.90396 7.59889C7.9141 7.58149 7.92654 7.56671 7.94068 7.55529C7.9471 7.54449 7.95934 7.53569 7.97215 7.53049C7.95157 7.54289 7.94863 7.55649 7.94593 7.58649C7.96402 7.59729 7.96885 7.60489 7.9984 7.60529C8.02744 7.60249 8.03446 7.59369 8.04562 7.57409C8.04763 7.60529 8.05606 7.61569 8.06134 7.64289C8.07214 7.66169 8.07673 7.68089 8.08759 7.70489C8.08297 7.73529 8.07301 7.73649 8.07184 7.77369C8.06503 7.79809 8.06578 7.82129 8.05087 7.83609C8.04421 7.84569 8.03923 7.84769 8.02462 7.84849C8.05501 7.84849 8.07271 7.84449 8.09284 7.82969C8.10841 7.81849 8.12017 7.80409 8.13481 7.79249C8.15338 7.77649 8.17633 7.76169 8.19778 7.75489C8.22202 7.75489 8.23948 7.75169 8.25025 7.76729C8.2651 7.78009 8.27509 7.80169 8.28172 7.82969C8.28658 7.86209 8.28844 7.88369 8.27647 7.90449C8.26759 7.92889 8.26558 7.93809 8.27647 7.96689C8.28868 7.98729 8.30683 7.98969 8.33419 7.99809C8.35201 7.99709 8.36966 7.99292 8.38666 7.98569" stroke="#DB161B" stroke-width="0.0132"/>
<path fill-rule="evenodd" clip-rule="evenodd" d="M5.0579 4.18646C4.4174 2.71213 3.9923 1.45757 4.1093 1.38589C4.226 1.31425 4.8404 2.45249 5.4809 3.92661L5.0579 4.18646Z" fill="white" stroke="#DB161B" stroke-width="0.01788"/>
<path fill-rule="evenodd" clip-rule="evenodd" d="M5.1002 4.16044C4.4825 2.73816 4.0568 1.53748 4.1501 1.48016C4.2434 1.42284 4.8206 2.53048 5.4386 3.95256" fill="white"/>
<path d="M5.1002 4.16044C4.4825 2.73816 4.0568 1.53748 4.1501 1.48016C4.2434 1.42284 4.8206 2.53048 5.4386 3.95256" stroke="#DB161B" stroke-width="0.01572"/>
<path fill-rule="evenodd" clip-rule="evenodd" d="M5.2064 3.41846C5.2817 3.58474 5.3612 3.77478 5.4386 3.95254L5.1002 4.16042C5.0231 3.9825 4.9388 3.79522 4.8683 3.62618L5.2064 3.41846Z" fill="white" stroke="#DB161B" stroke-width="0.01784"/>
<path fill-rule="evenodd" clip-rule="evenodd" d="M5.17791 3.47583C5.25291 3.64211 5.30541 3.76935 5.38251 3.94711L5.12901 4.10283C5.05161 3.92515 4.99461 3.80067 4.92411 3.63163L5.17791 3.47583Z" fill="white" stroke="#DB161B" stroke-width="0.01784"/>
<path d="M4.99384 3.66846L5.16297 3.56461L5.31312 3.91021L5.14398 4.01406L4.99384 3.66846Z" fill="white" stroke="#DB161B" stroke-width="0.01788"/>
<path fill-rule="evenodd" clip-rule="evenodd" d="M4.99367 3.66858L5.31287 3.9103L4.99367 3.66858ZM5.14397 4.0141L5.16287 3.5647L5.14397 4.0141ZM4.22927 1.90918L4.39847 1.8053L4.22927 1.90918Z" fill="white"/>
<path d="M4.99367 3.66858L5.31287 3.9103M5.14397 4.0141L5.16287 3.5647M4.22927 1.90918L4.39847 1.8053" stroke="#DB161B" stroke-width="0.01784"/>
<path d="M4.22912 1.74621C4.25548 1.75507 4.28167 1.73726 4.28762 1.70643C4.29357 1.67561 4.27702 1.64343 4.25067 1.63457C4.22431 1.62571 4.19812 1.64352 4.19217 1.67435C4.18622 1.70518 4.20277 1.73735 4.22912 1.74621Z" fill="#DB161B" stroke="#DB161B" stroke-width="0.0231388"/>
<path fill-rule="evenodd" clip-rule="evenodd" d="M5.55801 3.39844C5.55801 4.63612 5.56341 5.10252 5.49501 5.16652C5.43021 5.23492 3.62457 5.16652 3.62457 5.52012C3.62457 5.87372 5.11191 6.22732 5.55801 6.22732C6.15291 6.22732 6.45051 5.87372 6.45051 5.16652V3.39844H5.55801Z" fill="white" stroke="#DB161B" stroke-width="0.01628"/>
<path fill-rule="evenodd" clip-rule="evenodd" d="M5.55804 3.75204V3.92884C5.8539 3.9878 6.15469 3.9878 6.45054 3.92884V3.75204C6.15469 3.811 5.8539 3.811 5.55804 3.75204ZM5.55804 3.39844V3.57524C5.8539 3.63416 6.15469 3.63416 6.45054 3.57524V3.39844C6.15469 3.45736 5.8539 3.45736 5.55804 3.39844Z" fill="white" stroke="#DB161B" stroke-width="0.01408"/>
<path fill-rule="evenodd" clip-rule="evenodd" d="M5.55804 3.5752V3.752C5.8539 3.81096 6.15469 3.81096 6.45054 3.752V3.5752C6.15469 3.63412 5.8539 3.63412 5.55804 3.5752ZM5.55804 3.9288V4.10568C5.85564 4.16448 6.15294 4.16448 6.45054 4.10568V3.9288C6.15469 3.98776 5.8539 3.98776 5.55804 3.9288Z" fill="white" stroke="#DB161B" stroke-width="0.01408"/>
<path d="M5.5986 3.71385C5.62101 3.71385 5.63916 3.69678 5.63916 3.67571C5.63916 3.65465 5.62101 3.63757 5.5986 3.63757C5.5762 3.63757 5.55804 3.65465 5.55804 3.67571C5.55804 3.69678 5.5762 3.71385 5.5986 3.71385Z" fill="white" stroke="#DB161B" stroke-width="0.0132109"/>
<path d="M5.76077 3.7329C5.78318 3.7329 5.80133 3.71582 5.80133 3.69476C5.80133 3.67369 5.78318 3.65662 5.76077 3.65662C5.73837 3.65662 5.72021 3.67369 5.72021 3.69476C5.72021 3.71582 5.73837 3.7329 5.76077 3.7329Z" fill="white" stroke="#DB161B" stroke-width="0.0132109"/>
<path d="M5.92307 3.75194C5.94547 3.75194 5.96363 3.73486 5.96363 3.7138C5.96363 3.69274 5.94547 3.67566 5.92307 3.67566C5.90067 3.67566 5.88251 3.69274 5.88251 3.7138C5.88251 3.73486 5.90067 3.75194 5.92307 3.75194Z" fill="white" stroke="#DB161B" stroke-width="0.0132109"/>
<path d="M6.0853 3.75194C6.1077 3.75194 6.12586 3.73486 6.12586 3.7138C6.12586 3.69274 6.1077 3.67566 6.0853 3.67566C6.0629 3.67566 6.04474 3.69274 6.04474 3.7138C6.04474 3.73486 6.0629 3.75194 6.0853 3.75194Z" fill="white" stroke="#DB161B" stroke-width="0.0132109"/>
<path d="M6.24753 3.7329C6.26993 3.7329 6.28809 3.71582 6.28809 3.69476C6.28809 3.67369 6.26993 3.65662 6.24753 3.65662C6.22513 3.65662 6.20697 3.67369 6.20697 3.69476C6.20697 3.71582 6.22513 3.7329 6.24753 3.7329Z" fill="white" stroke="#DB161B" stroke-width="0.0132109"/>
<path d="M6.40982 3.71385C6.43222 3.71385 6.45038 3.69678 6.45038 3.67571C6.45038 3.65465 6.43222 3.63757 6.40982 3.63757C6.38742 3.63757 6.36926 3.65465 6.36926 3.67571C6.36926 3.69678 6.38742 3.71385 6.40982 3.71385Z" fill="white" stroke="#DB161B" stroke-width="0.0132109"/>
<path fill-rule="evenodd" clip-rule="evenodd" d="M5.55773 4.28247L6.45023 5.23727L5.55773 4.28247ZM5.64683 4.28247L6.45023 5.13087L5.64683 4.28247ZM5.76593 4.31767L6.45023 5.02487L5.76593 4.31767ZM5.85533 4.31767L6.45023 4.91887L5.85533 4.31767ZM5.94443 4.31767L6.45023 4.81287L5.94443 4.31767ZM6.03353 4.31767L6.45023 4.70687L6.03353 4.31767ZM6.12293 4.31767L6.45023 4.60047L6.12293 4.31767ZM6.21203 4.31767L6.45023 4.53007L6.21203 4.31767ZM6.30143 4.31767L6.45023 4.45927L6.30143 4.31767ZM6.39053 4.31767L6.45023 4.38847L6.39053 4.31767ZM5.55773 4.38847L6.45023 5.34327L5.55773 4.38847ZM6.45023 4.28247L5.46863 5.34327L6.45023 4.28247ZM6.36083 4.28247L5.49833 5.20167L6.36083 4.28247ZM6.24203 4.31767L5.55773 5.02487L6.24203 4.31767ZM6.15263 4.31767L5.55773 4.91887L6.15263 4.31767ZM6.06353 4.31767L5.55773 4.81287L6.06353 4.31767ZM5.97413 4.31767L5.55773 4.70687L5.97413 4.31767ZM5.88503 4.31767L5.55773 4.60047L5.88503 4.31767ZM5.79563 4.31767L5.55773 4.53007L5.79563 4.31767ZM5.70653 4.31767L5.55773 4.45927L5.70653 4.31767ZM5.61713 4.31767L5.55773 4.38847L5.61713 4.31767ZM6.45023 4.38847L5.46863 5.44927L6.45023 4.38847ZM6.45023 4.49447L5.46863 5.55527L6.45023 4.49447ZM6.45023 4.60047L5.46863 5.66167L6.45023 4.60047ZM6.45023 4.70687L5.46863 5.76767L6.45023 4.70687ZM6.45023 4.81287L5.46863 5.87367L6.45023 4.81287ZM6.45023 4.91887L5.46863 5.97967L6.45023 4.91887ZM6.45023 5.02487L5.46863 6.08567L6.45023 5.02487ZM6.45023 5.13127L5.46863 6.19207L6.45023 5.13127ZM6.45023 5.23727L5.52803 6.22727L6.45023 5.23727ZM6.45023 5.34327L5.61713 6.22727L6.45023 5.34327ZM6.42023 5.48487L5.76593 6.19207L6.42023 5.48487ZM6.39053 5.62607L5.85533 6.19207L6.39053 5.62607ZM6.33113 5.80287L6.06353 6.08567L6.33113 5.80287ZM5.55773 4.49447L6.42023 5.41407L5.55773 4.49447ZM5.55773 4.60047L6.42023 5.52007L5.55773 4.60047ZM5.55773 4.70687L6.39053 5.59087L5.55773 4.70687ZM5.55773 4.81287L6.39053 5.69687L5.55773 4.81287ZM5.55773 4.91887L6.36083 5.76767L5.55773 4.91887ZM5.52803 4.98967L6.33113 5.83847L5.52803 4.98967ZM5.52803 5.09567L6.27173 5.87367L5.52803 5.09567ZM5.49833 5.16647L6.24203 5.94447L5.49833 5.16647ZM5.46863 5.23727L6.18233 5.97967L5.46863 5.23727ZM5.46863 5.34327L6.15263 6.05047L5.46863 5.34327ZM5.46863 5.44927L6.06353 6.08567L5.46863 5.44927Z" fill="white"/>
<path d="M5.55773 4.28247L6.45023 5.23727L5.52803 6.22727M5.64683 4.28247L6.45023 5.13087M5.76593 4.31767L6.45023 5.02487L5.46863 6.08567M5.85533 4.31767L6.45023 4.91887L5.46863 5.97967M5.94443 4.31767L6.45023 4.81287L5.46863 5.87367M6.03353 4.31767L6.45023 4.70687L5.46863 5.76767M6.12293 4.31767L6.45023 4.60047L5.46863 5.66167M6.21203 4.31767L6.45023 4.53007M6.30143 4.31767L6.45023 4.45927M6.39053 4.31767L6.45023 4.38847L5.46863 5.44927L6.06353 6.08567L6.33113 5.80287M6.45023 4.28247L5.46863 5.34327L6.15263 6.05047M6.36083 4.28247L5.49833 5.20167M6.24203 4.31767L5.55773 5.02487M6.15263 4.31767L5.55773 4.91887L6.36083 5.76767M6.06353 4.31767L5.55773 4.81287L6.39053 5.69687M5.97413 4.31767L5.55773 4.70687L6.39053 5.59087M5.88503 4.31767L5.55773 4.60047L6.42023 5.52007M5.79563 4.31767L5.55773 4.53007M5.70653 4.31767L5.55773 4.45927M5.61713 4.31767L5.55773 4.38847L6.45023 5.34327L5.61713 6.22727M6.45023 4.49447L5.46863 5.55527M6.45023 5.13127L5.46863 6.19207M6.42023 5.48487L5.76593 6.19207M6.39053 5.62607L5.85533 6.19207M5.55773 4.49447L6.42023 5.41407M5.52803 4.98967L6.33113 5.83847M5.52803 5.09567L6.27173 5.87367M5.49833 5.16647L6.24203 5.94447M5.46863 5.23727L6.18233 5.97967" stroke="#DB161B" stroke-width="0.01408"/>
<path fill-rule="evenodd" clip-rule="evenodd" d="M5.55797 4.10571V4.28251C5.85557 4.34131 6.15287 4.34131 6.45047 4.28251V4.10571C6.15287 4.16451 5.85557 4.16451 5.55797 4.10571ZM5.46887 5.55531L6.00407 6.12131L5.46887 5.55531ZM5.46887 5.66171L5.94467 6.15651L5.46887 5.66171ZM5.46887 5.76771L5.88527 6.19211L5.46887 5.76771ZM5.46887 5.87371L5.76617 6.19211L5.46887 5.87371ZM5.46887 5.97971L5.70677 6.22731L5.46887 5.97971ZM5.46887 6.08571L5.61737 6.22731L5.46887 6.08571Z" fill="white"/>
<path d="M5.46887 5.55531L6.00407 6.12131M5.46887 5.66171L5.94467 6.15651M5.46887 5.76771L5.88527 6.19211M5.46887 5.87371L5.76617 6.19211M5.46887 5.97971L5.70677 6.22731M5.46887 6.08571L5.61737 6.22731M5.55797 4.10571V4.28251C5.85557 4.34131 6.15287 4.34131 6.45047 4.28251V4.10571C6.15287 4.16451 5.85557 4.16451 5.55797 4.10571Z" stroke="#DB161B" stroke-width="0.01408"/>
<path d="M5.5986 4.24425C5.62101 4.24425 5.63916 4.22717 5.63916 4.20611C5.63916 4.18504 5.62101 4.16797 5.5986 4.16797C5.5762 4.16797 5.55804 4.18504 5.55804 4.20611C5.55804 4.22717 5.5762 4.24425 5.5986 4.24425Z" fill="white" stroke="#DB161B" stroke-width="0.0132109"/>
<path d="M5.76077 4.26329C5.78318 4.26329 5.80133 4.24622 5.80133 4.22515C5.80133 4.20409 5.78318 4.18701 5.76077 4.18701C5.73837 4.18701 5.72021 4.20409 5.72021 4.22515C5.72021 4.24622 5.73837 4.26329 5.76077 4.26329Z" fill="white" stroke="#DB161B" stroke-width="0.0132109"/>
<path d="M5.92307 4.28234C5.94547 4.28234 5.96363 4.26526 5.96363 4.2442C5.96363 4.22313 5.94547 4.20605 5.92307 4.20605C5.90067 4.20605 5.88251 4.22313 5.88251 4.2442C5.88251 4.26526 5.90067 4.28234 5.92307 4.28234Z" fill="white" stroke="#DB161B" stroke-width="0.0132109"/>
<path d="M6.0853 4.28234C6.1077 4.28234 6.12586 4.26526 6.12586 4.2442C6.12586 4.22313 6.1077 4.20605 6.0853 4.20605C6.0629 4.20605 6.04474 4.22313 6.04474 4.2442C6.04474 4.26526 6.0629 4.28234 6.0853 4.28234Z" fill="white" stroke="#DB161B" stroke-width="0.0132109"/>
<path d="M6.24753 4.26329C6.26993 4.26329 6.28809 4.24622 6.28809 4.22515C6.28809 4.20409 6.26993 4.18701 6.24753 4.18701C6.22513 4.18701 6.20697 4.20409 6.20697 4.22515C6.20697 4.24622 6.22513 4.26329 6.24753 4.26329Z" fill="white" stroke="#DB161B" stroke-width="0.0132109"/>
<path d="M6.40982 4.24425C6.43222 4.24425 6.45038 4.22717 6.45038 4.20611C6.45038 4.18504 6.43222 4.16797 6.40982 4.16797C6.38742 4.16797 6.36926 4.18504 6.36926 4.20611C6.36926 4.22717 6.38742 4.24425 6.40982 4.24425Z" fill="white" stroke="#DB161B" stroke-width="0.0132109"/>
<path fill-rule="evenodd" clip-rule="evenodd" d="M4.27918 5.94446L5.35003 5.20166L4.27918 5.94446ZM4.21969 5.90886L5.23093 5.20166L4.21969 5.90886ZM4.18996 5.83846L5.11213 5.20166L4.18996 5.83846ZM4.1602 5.76766L4.96333 5.20166L4.1602 5.76766ZM4.10071 5.69686L4.84423 5.20166L4.10071 5.69686ZM4.13047 5.59086L4.63603 5.23726L4.13047 5.59086ZM4.10071 5.52006L4.48741 5.23726L4.10071 5.52006ZM4.10071 5.41406L4.36843 5.23726L4.10071 5.41406ZM4.36843 5.97966L5.37973 5.27246L4.36843 5.97966ZM4.45765 6.01526L5.40943 5.34326L4.45765 6.01526ZM4.54693 6.05046L5.43913 5.41406L4.54693 6.05046ZM4.63603 6.08566L5.37973 5.55526L4.63603 6.08566ZM4.75513 6.08566L5.40943 5.62606L4.75513 6.08566ZM4.84423 6.12126L5.40943 5.73206L4.84423 6.12126ZM4.93363 6.15646L5.37973 5.83846L4.93363 6.15646ZM5.05243 6.15646L5.40943 5.90886L5.05243 6.15646ZM5.17153 6.19206L5.40943 6.01526L5.17153 6.19206ZM5.29063 6.19206L5.43913 6.08566L5.29063 6.19206Z" fill="white"/>
<path d="M4.27918 5.94446L5.35003 5.20166M4.21969 5.90886L5.23093 5.20166M4.18996 5.83846L5.11213 5.20166M4.1602 5.76766L4.96333 5.20166M4.10071 5.69686L4.84423 5.20166M4.13047 5.59086L4.63603 5.23726M4.10071 5.52006L4.48741 5.23726M4.10071 5.41406L4.36843 5.23726M4.36843 5.97966L5.37973 5.27246M4.45765 6.01526L5.40943 5.34326M4.54693 6.05046L5.43913 5.41406M4.63603 6.08566L5.37973 5.55526M4.75513 6.08566L5.40943 5.62606M4.84423 6.12126L5.40943 5.73206M4.93363 6.15646L5.37973 5.83846M5.05243 6.15646L5.40943 5.90886M5.17153 6.19206L5.40943 6.01526M5.29063 6.19206L5.43913 6.08566" stroke="#DB161B" stroke-width="0.01408"/>
<path fill-rule="evenodd" clip-rule="evenodd" d="M5.49859 5.1665H5.34979C5.30029 5.51702 5.30029 5.87678 5.34979 6.2273H5.49859C5.44879 5.87682 5.44879 5.51699 5.49859 5.1665ZM3.74353 5.6617L4.10047 5.3081L3.74353 5.6617ZM3.74353 5.4141L4.10047 5.8385L3.74353 5.4141Z" fill="white"/>
<path d="M3.74353 5.6617L4.10047 5.3081M3.74353 5.4141L4.10047 5.8385M5.49859 5.1665H5.34979C5.30029 5.51702 5.30029 5.87678 5.34979 6.2273H5.49859C5.44879 5.87682 5.44879 5.51699 5.49859 5.1665Z" stroke="#DB161B" stroke-width="0.01408"/>
<path fill-rule="evenodd" clip-rule="evenodd" d="M4.27895 5.2373L4.10048 5.2725C4.06082 5.4965 4.06082 5.68491 4.10048 5.90891L4.27895 5.97971C4.23929 5.75571 4.23929 5.4613 4.27895 5.2373Z" fill="white" stroke="#DB161B" stroke-width="0.01004"/>
<path fill-rule="evenodd" clip-rule="evenodd" d="M6.44934 3.46909V3.29081C6.31584 3.29229 6.22644 3.18621 6.22644 3.07861L5.78094 3.08009C5.78094 3.18621 5.69184 3.29229 5.55804 3.29229V3.46909H6.44934Z" fill="white" stroke="#DB161B" stroke-width="0.01724"/>
<path d="M5.81268 2.86792H6.1947V3.08008H5.81268V2.86792ZM5.84448 2.65576H6.16284V2.86792H5.84448V2.65576ZM5.84448 2.4436H6.16284V2.65576H5.84448V2.4436Z" fill="white"/>
<path d="M5.84448 2.65576H6.16284M5.84448 2.65576V2.86792H6.16284V2.65576M5.84448 2.65576V2.4436H6.16284V2.65576M5.81268 2.86792H6.1947V3.08008H5.81268V2.86792Z" stroke="#DB161B" stroke-width="0.01456"/>
<path d="M5.87628 2.16077H6.13095V2.44365H5.87628V2.16077Z" fill="white" stroke="#DB161B" stroke-width="0.01456"/>
<path d="M5.86554 1.91321H6.14217V2.16073H5.86554V1.91321Z" fill="white" stroke="#DB161B" stroke-width="0.0152"/>
<path d="M6.01912 2.01941C6.22283 2.01941 6.38797 1.869 6.38797 1.68347C6.38797 1.49794 6.22283 1.34753 6.01912 1.34753C5.81541 1.34753 5.65027 1.49794 5.65027 1.68347C5.65027 1.869 5.81541 2.01941 6.01912 2.01941Z" fill="white" stroke="#DB161B" stroke-width="0.0143217"/>
<path fill-rule="evenodd" clip-rule="evenodd" d="M6.20359 1.66565C6.20359 1.75841 6.29569 1.91321 6.29569 1.91321C6.22879 1.97401 6.12079 2.01929 6.01909 2.01929C5.91739 2.01929 5.79049 1.99405 5.74249 1.91321C5.74249 1.91321 5.83459 1.75841 5.83459 1.66565C5.83459 1.57293 5.74249 1.45349 5.74249 1.45349C5.80909 1.39269 5.91739 1.34741 6.01909 1.34741C6.12079 1.34741 6.22879 1.39269 6.29569 1.45349C6.29569 1.45349 6.20359 1.57293 6.20359 1.66565Z" fill="white" stroke="#DB161B" stroke-width="0.01432"/>
<path fill-rule="evenodd" clip-rule="evenodd" d="M6.14212 1.66565C6.14212 1.75841 6.23422 1.94857 6.23422 1.94857C6.16762 2.00937 6.12082 2.01929 6.01912 2.01929C5.91742 2.01929 5.85202 2.02941 5.80402 1.94857C5.80402 1.94857 5.89612 1.75841 5.89612 1.66565C5.89612 1.57293 5.80402 1.41813 5.80402 1.41813C5.87062 1.35733 5.91742 1.34741 6.01912 1.34741C6.12082 1.34741 6.16762 1.35733 6.23422 1.41813C6.23422 1.41813 6.14212 1.57293 6.14212 1.66565Z" fill="white" stroke="#DB161B" stroke-width="0.01432"/>
<path d="M5.65026 1.80727C5.70119 1.80727 5.74247 1.75977 5.74247 1.70118C5.74247 1.64259 5.70119 1.59509 5.65026 1.59509C5.59933 1.59509 5.55804 1.64259 5.55804 1.70118C5.55804 1.75977 5.59933 1.80727 5.65026 1.80727Z" fill="white" stroke="#DB161B" stroke-width="0.0143217"/>
<path d="M6.38793 1.80727C6.43886 1.80727 6.48014 1.75977 6.48014 1.70118C6.48014 1.64259 6.43886 1.59509 6.38793 1.59509C6.337 1.59509 6.29572 1.64259 6.29572 1.70118C6.29572 1.75977 6.337 1.80727 6.38793 1.80727Z" fill="white" stroke="#DB161B" stroke-width="0.0143217"/>
<path d="M6.01909 1.80727C6.07002 1.80727 6.11131 1.75977 6.11131 1.70118C6.11131 1.64259 6.07002 1.59509 6.01909 1.59509C5.96817 1.59509 5.92688 1.64259 5.92688 1.70118C5.92688 1.75977 5.96817 1.80727 6.01909 1.80727Z" fill="white" stroke="#DB161B" stroke-width="0.0143217"/>
<path d="M6.01909 1.45363C6.07002 1.45363 6.11131 1.40613 6.11131 1.34754C6.11131 1.28895 6.07002 1.24146 6.01909 1.24146C5.96817 1.24146 5.92688 1.28895 5.92688 1.34754C5.92688 1.40613 5.96817 1.45363 6.01909 1.45363Z" fill="white" stroke="#DB161B" stroke-width="0.0143217"/>
<path d="M5.74901 3.46913C5.80175 3.46913 5.84451 3.42164 5.84451 3.36305C5.84451 3.30445 5.80175 3.25696 5.74901 3.25696C5.69626 3.25696 5.6535 3.30445 5.6535 3.36305C5.6535 3.42164 5.69626 3.46913 5.74901 3.46913Z" fill="white" stroke="#DB161B" stroke-width="0.014575"/>
<path d="M6.25835 3.46913C6.31109 3.46913 6.35385 3.42164 6.35385 3.36305C6.35385 3.30445 6.31109 3.25696 6.25835 3.25696C6.2056 3.25696 6.16284 3.30445 6.16284 3.36305C6.16284 3.42164 6.2056 3.46913 6.25835 3.46913Z" fill="white" stroke="#DB161B" stroke-width="0.014575"/>
<path fill-rule="evenodd" clip-rule="evenodd" d="M5.78088 3.08008H6.22638L6.00378 3.39836L5.78088 3.08008Z" fill="white" stroke="#DB161B" stroke-width="0.01456"/>
<path d="M6.00368 3.46917C6.07401 3.46917 6.13102 3.40585 6.13102 3.32773C6.13102 3.24961 6.07401 3.18628 6.00368 3.18628C5.93335 3.18628 5.87634 3.24961 5.87634 3.32773C5.87634 3.40585 5.93335 3.46917 6.00368 3.46917Z" fill="white" stroke="#DB161B" stroke-width="0.0194333"/>
<path d="M6.16032 4.38892H5.55045C5.52993 4.38892 5.51331 4.40571 5.51331 4.42644V4.56356C5.51331 4.58428 5.52993 4.60108 5.55045 4.60108H6.16032C6.18083 4.60108 6.19746 4.58428 6.19746 4.56356V4.42644C6.19746 4.40571 6.18083 4.38892 6.16032 4.38892Z" fill="white" stroke="#DB161B" stroke-width="0.0132"/>
<path fill-rule="evenodd" clip-rule="evenodd" d="M6.40578 4.21208C6.32328 4.21208 6.25698 4.29448 6.25698 4.39688V4.55768C6.25698 4.66008 6.32328 4.74248 6.40578 4.74248C6.48828 4.74248 6.55458 4.66008 6.55458 4.55768V4.39688C6.55458 4.29448 6.48828 4.21208 6.40578 4.21208ZM6.40578 4.28288C6.35628 4.28288 6.31638 4.34888 6.31638 4.43088V4.52408C6.31638 4.60608 6.35628 4.67168 6.40578 4.67168C6.45528 4.67168 6.49488 4.60608 6.49488 4.52408V4.43088C6.49488 4.34888 6.45528 4.28288 6.40578 4.28288ZM5.63238 4.24768C5.58288 4.24768 5.54328 4.31328 5.54328 4.39528V4.55928C5.54328 4.64128 5.58288 4.70728 5.63238 4.70728C5.68188 4.70728 5.72148 4.64128 5.72148 4.55928V4.39528C5.72148 4.31328 5.68188 4.24768 5.63238 4.24768ZM5.63238 4.17688C5.54988 4.17688 5.48358 4.25928 5.48358 4.36168V4.59328C5.48358 4.69568 5.54988 4.77808 5.63238 4.77808C5.71488 4.77808 5.78118 4.69568 5.78118 4.59328V4.36168C5.78118 4.25928 5.71488 4.17688 5.63238 4.17688Z" fill="white" stroke="#DB161B" stroke-width="0.0132"/>
<path fill-rule="evenodd" clip-rule="evenodd" d="M5.39453 4.31808C5.34503 4.31808 5.30513 4.38408 5.30513 4.46608V4.50448C5.30513 4.58648 5.34503 4.65248 5.39453 4.65248C5.44403 4.65248 5.48363 4.58648 5.48363 4.50448V4.46608C5.48363 4.38408 5.44403 4.31808 5.39453 4.31808ZM5.39453 4.24768C5.31203 4.24768 5.24573 4.33008 5.24573 4.43248V4.53848C5.24573 4.64088 5.31203 4.72328 5.39453 4.72328C5.47673 4.72328 5.54333 4.64088 5.54333 4.53848V4.43248C5.54333 4.33008 5.47673 4.24768 5.39453 4.24768Z" fill="white" stroke="#DB161B" stroke-width="0.0132"/>
<path fill-rule="evenodd" clip-rule="evenodd" d="M5.0375 4.22044C4.9484 4.22044 4.877 4.29404 4.877 4.38564V4.56884C4.877 4.66044 4.9484 4.73404 5.0375 4.73404C5.1266 4.73404 5.198 4.66044 5.198 4.56884V4.38564C5.198 4.29404 5.1266 4.22044 5.0375 4.22044ZM5.0375 4.14124C4.8893 4.14124 4.7699 4.23364 4.7699 4.34804V4.60684C4.7699 4.72124 4.8893 4.81324 5.0375 4.81324C5.1857 4.81324 5.3051 4.72124 5.3051 4.60684V4.34804C5.3051 4.23364 5.1857 4.14124 5.0375 4.14124ZM6.971 4.25564C6.8819 4.25564 6.8102 4.32964 6.8102 4.42124V4.60444C6.8102 4.69604 6.8819 4.76964 6.971 4.76964C7.0598 4.76964 7.1315 4.69604 7.1315 4.60444V4.42124C7.1315 4.32964 7.0598 4.25564 6.971 4.25564ZM6.971 4.17684C6.8225 4.17684 6.7031 4.26884 6.7031 4.38324V4.64204C6.7031 4.75644 6.8225 4.84844 6.971 4.84844C7.1192 4.84844 7.2386 4.75644 7.2386 4.64204V4.38324C7.2386 4.26884 7.1192 4.17684 6.971 4.17684Z" fill="white" stroke="#DB161B" stroke-width="0.0132"/>
<path d="M6.80277 4.38892H6.48459C6.47389 4.38892 6.46521 4.40571 6.46521 4.42644V4.56356C6.46521 4.58428 6.47389 4.60108 6.48459 4.60108H6.80277C6.81347 4.60108 6.82215 4.58428 6.82215 4.56356V4.42644C6.82215 4.40571 6.81347 4.38892 6.80277 4.38892Z" fill="white" stroke="#DB161B" stroke-width="0.0132"/>
<path d="M6.33516 4.35364H6.14955C6.14331 4.35364 6.13824 4.37604 6.13824 4.40368V4.58648C6.13824 4.61411 6.14331 4.63652 6.14955 4.63652H6.33516C6.34141 4.63652 6.34647 4.61411 6.34647 4.58648V4.40368C6.34647 4.37604 6.34141 4.35364 6.33516 4.35364Z" fill="white" stroke="#DB161B" stroke-width="0.0132"/>
<path d="M5.35354 4.35364H5.16793C5.16168 4.35364 5.15662 4.37604 5.15662 4.40368V4.58648C5.15662 4.61411 5.16168 4.63652 5.16793 4.63652H5.35354C5.35978 4.63652 5.36485 4.61411 5.36485 4.58648V4.40368C5.36485 4.37604 5.35978 4.35364 5.35354 4.35364Z" fill="white" stroke="#DB161B" stroke-width="0.0132"/>
<path d="M4.89585 4.31812H4.5246C4.51213 4.31812 4.50201 4.34611 4.50201 4.38064V4.6092C4.50201 4.64372 4.51213 4.67172 4.5246 4.67172H4.89585C4.90833 4.67172 4.91844 4.64372 4.91844 4.6092V4.38064C4.91844 4.34611 4.90833 4.31812 4.89585 4.31812Z" fill="white" stroke="#DB161B" stroke-width="0.0132"/>
<path d="M7.45548 4.35364H7.11078C7.09918 4.35364 7.08978 4.38163 7.08978 4.41616V4.64472C7.08978 4.67925 7.09918 4.70724 7.11078 4.70724H7.45548C7.46708 4.70724 7.47648 4.67925 7.47648 4.64472V4.41616C7.47648 4.38163 7.46708 4.35364 7.45548 4.35364Z" fill="white" stroke="#DB161B" stroke-width="0.0132"/>
</g>
<defs>
<clipPath id="clip0_1794_1814">
<rect width="36" height="24" fill="white"/>
</clipPath>
</defs>
</svg>
